<svg width="14" height="20" viewBox="0 0 14 20" fill="none" xmlns="http://www.w3.org/2000/svg">
<path d="M13.129 0H0.870968V2.26891H13.129V0Z" fill="black"/>
<path d="M2.00832 17.7311H0.870968V20H13.129V17.7311H12.0338V13.2773H10.8965V17.7311H3.14567V13.2774H4.24086V12.1849H3.14564L3.14567 13.2774L2.00832 13.2773V17.7311Z" fill="black"/>
<path d="M2.00832 2.26893H3.14567V6.72267H4.24086V7.81511H3.14564L3.14567 6.72267L2.00832 6.72272V2.26893Z" fill="black"/>
<path d="M10.8965 2.26893H12.0338V6.72272H10.8965V2.26893Z" fill="black"/>
<path d="M4.24087 11.0925H5.33609V12.1849L4.24086 12.1849L4.24087 11.0925Z" fill="black"/>
<path d="M5.33609 8.90756H4.24087L4.24086 7.81511L5.33609 7.81512V8.90756Z" fill="black"/>
<path d="M5.33609 11.0925V8.90756L6.43132 8.9076V11.0925L5.33609 11.0925Z" fill="black"/>
<path d="M9.80122 6.72267L10.8965 6.72272L10.8964 7.81511H9.80122V6.72267Z" fill="black"/>
<path d="M8.66387 5.54623H7.56864V6.63866H8.66387V5.54623Z" fill="black"/>
<path d="M8.66387 15.4622V14.3698H7.56867H6.47345V15.4622H8.66387Z" fill="black"/>
<path d="M5.37822 5.54623H6.47344V6.63866H5.37822V5.54623Z" fill="black"/>
<path d="M6.47345 15.4622H5.37822V14.3698H6.47345V15.4622Z" fill="black"/>
<path d="M4.24087 16.5547H9.80123V15.4623H4.24087V16.5547Z" fill="black"/>
<path d="M10.8964 12.1849H9.80122V13.2774L10.8965 13.2773L10.8964 12.1849Z" fill="black"/>
<path d="M8.70603 11.0925H9.80125L9.80122 12.1849L8.70603 12.1849V11.0925Z" fill="black"/>
<path d="M9.80125 8.90756H8.70603V7.81512L9.80122 7.81511L9.80125 8.90756Z" fill="black"/>
<path d="M6.47345 7.73111H7.56867L7.56864 6.63866H6.47344L6.47345 7.73111Z" fill="black"/>
<path d="M7.56867 13.2773H6.47345V14.3698H7.56867V13.2773Z" fill="black"/>
<path d="M7.6108 11.0925V8.9076L8.70603 8.90756V11.0925L7.6108 11.0925Z" fill="black"/>
</svg>
